<svg xmlns="http://www.w3.org/2000/svg" x="0px" y="0px" width="100" height="100" viewBox="0 0 48 48">
<path d="M 24.304688 0.0078125 C 24.004598 -0.006701331 23.696196 0.011776616 23.384766 0.068359375 L 23.382812 0.068359375 C 21.806807 0.3561442 20.544643 1.5779582 20.21875 3.1503906 C 20.085884 3.7896494 20.125513 4.4165072 20.277344 5 L 16.130859 5 A 1.0001 1.0001 0 0 0 15.130859 6 L 15.130859 9 C 15.130859 10.64497 16.48589 12 18.130859 12 L 30.130859 12 C 31.775829 12 33.130859 10.64497 33.130859 9 L 33.130859 7 L 36.130859 7 C 37.799343 7 39.130859 8.3315161 39.130859 10 L 39.130859 41 C 39.130859 42.668484 37.799343 44 36.130859 44 L 12.130859 44 C 10.462375 44 9.1308594 42.668484 9.1308594 41 L 9.1308594 10 C 9.1308594 8.3315161 10.462375 7 12.130859 7 A 1.0001 1.0001 0 1 0 12.130859 5 C 9.3813437 5 7.1308594 7.2504839 7.1308594 10 L 7.1308594 41 C 7.1308594 43.749516 9.3813437 46 12.130859 46 L 36.130859 46 C 38.880375 46 41.130859 43.749516 41.130859 41 L 41.130859 10 C 41.130859 7.2504839 38.880375 5 36.130859 5 L 32.130859 5 A 1.0001 1.0001 0 0 0 31.130859 6 L 31.130859 9 C 31.130859 9.5650302 30.69589 10 30.130859 10 L 18.130859 10 C 17.565829 10 17.130859 9.5650302 17.130859 9 L 17.130859 7 L 21.900391 7 A 1.0001 1.0001 0 0 0 22.640625 5.328125 C 22.232845 4.8776319 22.029566 4.2695265 22.177734 3.5566406 C 22.331719 2.8136642 22.991022 2.1719663 23.742188 2.0351562 C 25.069935 1.7932421 26.130859 2.752411 26.130859 4 C 26.130859 4.5189177 25.939581 4.9743054 25.619141 5.328125 A 1.0004044 1.0004044 0 1 0 27.101562 6.671875 C 27.741122 5.9656946 28.130859 5.0210823 28.130859 4 C 28.130859 1.8617211 26.405315 0.10940932 24.304688 0.0078125 z M 24.130859 17 C 22.516276 17 21.17991 17.731316 20.345703 18.787109 C 19.511496 19.842903 19.130859 21.177469 19.130859 22.5 C 19.130859 23.822531 19.511496 25.157097 20.345703 26.212891 C 21.17991 27.268684 22.516276 28 24.130859 28 C 25.745442 28 27.079857 27.268684 27.914062 26.212891 C 28.748269 25.157097 29.130859 23.822531 29.130859 22.5 C 29.130859 21.177469 28.748269 19.842903 27.914062 18.787109 C 27.079856 17.731316 25.745442 17 24.130859 17 z M 24.130859 19 C 25.182942 19 25.846577 19.393684 26.345703 20.025391 C 26.844829 20.657097 27.130859 21.572531 27.130859 22.5 C 27.130859 23.427469 26.844829 24.342903 26.345703 24.974609 C 25.846577 25.606316 25.182942 26 24.130859 26 C 23.078777 26 22.413188 25.606316 21.914062 24.974609 C 21.414937 24.342903 21.130859 23.427469 21.130859 22.5 C 21.130859 21.572531 21.414938 20.657097 21.914062 20.025391 C 22.413189 19.393684 23.078777 19 24.130859 19 z M 24.130859 30 C 19.587414 30 15.583202 33.141806 14.173828 37.705078 A 1.0005099 1.0005099 0 0 0 16.085938 38.294922 C 17.258563 34.498194 20.508305 32 24.130859 32 C 27.753414 32 31.001202 34.498194 32.173828 38.294922 A 1.0005099 1.0005099 0 1 0 34.085938 37.705078 C 32.676563 33.141806 28.674305 30 24.130859 30 z"></path>
</svg>